# xmcd
#
# Track frame offsets:
#	150
#	13735
#	31615
#	44622
#	60730
#	72822
#	85760
#	102557
#	121655
#	135117
#	152462
#	167715
#	182517
#	196232
#	211037
#
# Disc length: 3060 seconds
#
# Revision: 2
# Processed by: cddbd v1.5.1PL0 Copyright (c) Steve Scherf et al.
# Submitted via: MusicManager 7.2.0.0 
#
DISCID=b40bf20f
DTITLE=John Anderson - Greatest Hits
DYEAR=1996
DGENRE=
TTITLE0=Money In The Bank
TTITLE1=Seminole Wind
TTITLE2=Straight Tequila Night
TTITLE3=I Wish I Could Have Been There
TTITLE4=I Fell In The Water
TTITLE5=I've Got It Made
TTITLE6=Keep Your Hands To Yourself
TTITLE7=Mississippi Moon
TTITLE8=Swingin'
TTITLE9=When It Comes To You
TTITLE10=Long Hard Lesson Learned
TTITLE11=Let Go Of The Stone
TTITLE12=Country 'Til I Die
TTITLE13=Who Got Our Love
TTITLE14=Bend It 'Til It Breaks
EXTD=
EXTT0=
EXTT1=
EXTT2=
EXTT3=
EXTT4=
EXTT5=
EXTT6=
EXTT7=
EXTT8=
EXTT9=
EXTT10=
EXTT11=
EXTT12=
EXTT13=
EXTT14=
PLAYORDER=
